<?xml version="1.0" encoding="UTF-8" standalone="no"?>
<!-- Created with Inkscape (http://www.inkscape.org/) -->

<svg
   xmlns:dc="http://purl.org/dc/elements/1.1/"
   xmlns:cc="http://creativecommons.org/ns#"
   xmlns:rdf="http://www.w3.org/1999/02/22-rdf-syntax-ns#"
   xmlns:svg="http://www.w3.org/2000/svg"
   xmlns="http://www.w3.org/2000/svg"
   xmlns:sodipodi="http://sodipodi.sourceforge.net/DTD/sodipodi-0.dtd"
   xmlns:inkscape="http://www.inkscape.org/namespaces/inkscape"
   width="1000"
   height="1000"
   viewBox="0 0 999.99999 1000"
   id="svg3336"
   version="1.1"
   inkscape:version="0.91 r13725"
   sodipodi:docname="map.svg">
  <defs
     id="defs3338">
    <inkscape:path-effect
       effect="skeletal"
       id="path-effect4167"
       is_visible="true"
       pattern="M 0,0 1,0"
       copytype="single_stretched"
       prop_scale="1"
       scale_y_rel="false"
       spacing="0"
       normal_offset="0"
       tang_offset="0"
       prop_units="false"
       vertical_pattern="false"
       fuse_tolerance="0" />
    <inkscape:path-effect
       effect="rough_hatches"
       id="path-effect4165"
       is_visible="true"
       direction="875.66596,598.14424 , 63.595571,0"
       dist_rdm="75;1"
       growth="0"
       do_bend="true"
       bender="875.66596,603.14424 , 5,0"
       bottom_edge_variation="50.156415;1"
       top_edge_variation="50.156415;1"
       bottom_tgt_variation="0;1"
       top_tgt_variation="0;1"
       scale_bf="1"
       scale_bb="1"
       scale_tf="1"
       scale_tb="1"
       top_smth_variation="0;1"
       bottom_smth_variation="0;1"
       fat_output="true"
       stroke_width_top="1"
       stroke_width_bottom="1"
       front_thickness="1"
       back_thickness="0.25" />
    <inkscape:path-effect
       effect="vonkoch"
       id="path-effect4163"
       is_visible="true"
       ref_path="m 748.47482,603.14424 254.38228,0"
       generator="m 748.47482,853.92631 84.79409,0 m 84.7941,0 84.79409,0"
       similar_only="false"
       nbgenerations="1"
       drawall="true"
       maxComplexity="1000" />
  </defs>
  <sodipodi:namedview
     id="base"
     pagecolor="#ffffff"
     bordercolor="#666666"
     borderopacity="1.0"
     inkscape:pageopacity="0.0"
     inkscape:pageshadow="2"
     inkscape:zoom="1.4"
     inkscape:cx="810.88093"
     inkscape:cy="281.25491"
     inkscape:document-units="px"
     inkscape:current-layer="layer1"
     showgrid="false"
     units="px"
     inkscape:window-width="1600"
     inkscape:window-height="838"
     inkscape:window-x="0"
     inkscape:window-y="25"
     inkscape:window-maximized="1" />
  <metadata
     id="metadata3341">
    <rdf:RDF>
      <cc:Work
         rdf:about="">
        <dc:format>image/svg+xml</dc:format>
        <dc:type
           rdf:resource="http://purl.org/dc/dcmitype/StillImage" />
        <dc:title></dc:title>
      </cc:Work>
    </rdf:RDF>
  </metadata>
  <g
     inkscape:label="Layer 1"
     inkscape:groupmode="layer"
     id="layer1"
     transform="translate(0,-52.362161)">
    <rect
       style="fill:#174595;fill-opacity:1;stroke:#fcd100;stroke-width:0.1;stroke-linecap:round;stroke-linejoin:round;stroke-miterlimit:4;stroke-dasharray:none;stroke-opacity:1"
       id="rect3344"
       width="1000"
       height="1000"
       x="-1000.05"
       y="52.31216"
       ry="5.7142901"
       transform="scale(-1,1)" />
    <path
       style="fill:#2d7f4d;fill-opacity:1;fill-rule:evenodd;stroke:#000000;stroke-width:1px;stroke-linecap:butt;stroke-linejoin:miter;stroke-opacity:1"
       d="m 403.8673,382.18884 c -9.65803,-7.12199 3.2889,-28.2089 -14.28572,-22.85714 -15.72787,-4.08225 -27.66631,-16.53639 -33.47417,-33.44854 -7.77782,-30.40522 -54.50898,-10.60324 -50.81154,-46.55146 -12.33107,-15.99537 -5.84706,-32.32785 -4.76601,-47.63161 -20.81111,-13.68724 -31.89696,-39.81156 -56.66256,-46.6541 -16.32717,-3.99123 -29.13982,5.36908 -35.49311,14.59503 -4.44848,13.80205 -5.10251,28.43617 -4.50689,43.23368 1.17532,20.16997 -15.68656,32.3123 -24.28572,47.88557 -10.49347,19.31532 -13.00849,41.74666 -22.7715,61.46703 -11.17817,17.49528 -2.35693,39.41035 -7.2285,58.53297 -6.10584,17.7938 1.92283,29.19988 21.42857,32.85714 15.4715,11.3874 26.09674,22.41863 44.35539,31.58531 12.20144,12.14065 39.67064,17.53567 37.07319,36.70065 8.78551,10.30723 23.41395,6.42495 35.71428,13.14262 9.59795,11.13404 -7.63387,16.02239 -2.85714,31.37172 5.82736,21.67383 -17.38254,28.69758 -21.42857,45.77113 -2.25128,14.71288 -17.44901,24.72343 -20.00636,34.69254 -7.07063,6.80372 -19.37086,19.86277 -28.56507,28.16461 -8.95535,7.02642 -12.72014,-1.0103 -18.57143,7.14285 -2.19291,8.28321 -6.64479,0.28718 -18.57143,10e-6 -10.82615,-5.76129 -14.74755,-6.84516 -32.85714,-14.28572 -11.46949,-10.2834 -31.54229,-41.839 -42.85714,-34.28572 -1.97455,15.21107 -2.36624,27.99844 -2.530645,43.25226 6.953505,20.80666 39.420765,37.71173 39.673495,56.74774 -12.22661,11.11451 -25.76175,-12.30514 -22.85714,3.543 2.14652,13.39527 -24.626258,10.00461 -25.707941,21.76448 0.56962,10.29575 -23.264819,8.28108 -21.434917,6.34971 -0.770524,11.94538 -2.412937,24.7879 13.771624,19.77139 12.229781,-0.99005 26.872074,1.8433 24.799804,16.17152 -2.30173,13.63691 16.12647,17.43206 24.28572,25.25705 10.02877,3.33108 23.9806,2.43636 37.60009,4.28571 l 45.25705,0 c 17.75108,-6.08727 41.17107,-9.63808 61.42857,-12.85714 22.12582,3.90357 24.13679,-20.01239 36.25843,-31.34049 18.61191,-12.26437 29.08019,21.85382 49.45586,11.34049 14.66394,1.36173 30.49755,-2.91113 44.28571,2.85714 13.56689,9.56274 26.75428,22.91597 40,2.85714 16.60035,-12.07775 17.8259,-29.60618 21.42857,-48.57142 9.60284,-6.72916 13.32604,-16.79384 -4.00024,-12.85715 -14.63511,0.002 -29.52955,-1.74099 -43.24976,-4.13243 -14.70277,-2.6244 -33.94675,-12.49579 -32.75,-32.03909 -1.27934,-17.49999 3.84603,-32.81763 7.23021,-49.63672 0.65609,-7.62202 17.85348,-10.91327 29.91265,-14.19176 9.70157,-4.70075 14.68724,-13.095 28.28596,-10 13.41107,-0.18289 19.8661,7.28716 27.42832,14.28572 7.7299,5.429 16.33172,16.64023 18.57143,27.14285 4.53326,10.01694 7.41915,16.00164 22.67857,12.67857 4.53363,-4.00264 19.8667,-10.21639 23.73317,-4.90626 3.56146,4.89124 -4.39203,21.07542 0.73112,23.65627 10.43263,5.32275 20.26143,6.10276 32.85714,5.71428 11.81794,2.04804 22.2533,-2.08937 18.57143,-15.42882 -0.16405,-11.0849 1.59704,-23.08886 -4.28571,-31.71404 -6.17492,-18.85007 -11.30688,-23.23119 -21.42857,-35.71428 -6.14269,-3.99902 -18.44624,-12.55786 -28.81039,-15.54418 -14.91131,1.56171 -10.42756,-15.20631 -28.33247,-10.17011 -17.23941,4.05247 -19.07637,-7.31677 -17.14286,-21.37172 1.00085,-14.62499 -0.65346,-26.64848 -13.57143,-34.34256 -8.98747,-6.00363 -22.06577,-13.45479 -19.28571,-26.62877 -3.75141,-17.66238 -8.08281,-30.04647 14.28571,-29.08552 4.3843,-1.43998 5.57504,-20.63963 -1.42857,-21.42857 -13.45446,-7.41621 -21.21823,-13.89237 -35,-20 -14.63575,-12.92133 -14.72725,-25.92393 -33.57143,-35.71429 2.79653,-10.36821 -11.05667,-13.19732 -5.71428,-21.42857 z"
       id="path4152"
       inkscape:connector-curvature="0"
       sodipodi:nodetypes="ccccccccccccccccccccccccccccccccccccccccccccccccsccccccccccccccc" />
    <path
       style="fill:#2d7f4d;fill-rule:evenodd;stroke:#000000;stroke-width:1px;stroke-linecap:butt;stroke-linejoin:miter;stroke-opacity:1;fill-opacity:1"
       d="m 142.85714,488.07645 c 0,4.7619 0,9.5238 0,14.28571 0,0.95238 0,1.90476 0,2.85714 0,0.95238 0.23099,1.9332 0,2.85715 -0.25825,1.033 -1.09185,1.84699 -1.42857,2.85714 -0.506,1.51802 0.50601,4.19627 0,5.71428 -0.33672,1.01016 -1.17032,1.82414 -1.42857,2.85715 -0.23099,0.92394 0.30117,1.95363 0,2.85714 -0.21296,0.63888 -1.1274,0.82623 -1.42857,1.42857 -0.28321,0.56642 0.29205,3.99366 0,4.28572 -0.33672,0.33671 -1.09186,-0.33672 -1.42857,0 -0.67344,0.67343 0.42591,2.0053 0,2.85714 -0.60234,1.20468 -2.11004,1.73648 -2.85715,2.85714 -0.59064,0.88596 -1.09185,1.84699 -1.42857,2.85714 -0.15058,0.45176 0.33672,1.09186 0,1.42858 -0.33671,0.33671 -1.09185,-0.33672 -1.42857,0 -0.33672,0.33671 0.33672,1.09185 0,1.42857 -0.001,0.001 -4.27924,-0.002 -4.28571,0 -0.63888,0.21296 -0.82624,1.1274 -1.42857,1.42857 -0.85184,0.42592 -2.18371,-0.67344 -2.85715,0 -0.33671,0.33672 0,0.95238 0,1.42857 0,2.38095 0,4.7619 0,7.14286 0,4.28571 0,8.57143 0,12.85714 0,0.47619 0,0.95238 0,1.42857 0,0.47619 -0.33671,1.09186 0,1.42857 0.046,0.046 3.93925,0 4.28572,0 1.2095,0 4.94627,-0.256 5.71428,0 0.63888,0.21296 0.7897,1.21562 1.42857,1.42857 1.35527,0.45176 2.85715,0 4.28572,0 3.80952,0 7.61905,0 11.42857,0 0.52462,0 5.6568,0.0575 5.71429,0 0.33671,-0.33671 0,-0.95238 0,-1.42857 0,-3.80952 0,-7.61905 0,-11.42857 0,-3.80952 0,-7.61905 0,-11.42857 0,-0.47619 -0.33672,-1.09185 0,-1.42857 0.33671,-0.33672 1.09185,0.33672 1.42857,0 0.67343,-0.67344 -0.42592,-2.00531 0,-2.85714 0.30117,-0.60234 1.1274,-0.82624 1.42857,-1.42858 0.42592,-0.85183 -0.42592,-2.0053 0,-2.85714 0.30117,-0.60234 1.21561,-0.78969 1.42857,-1.42857 0.21798,-0.65395 0,-6.34549 0,-7.14286 0,-5.23809 0,-10.47619 0,-15.71428 0,-3.33334 0,-6.66667 0,-10 0,-0.47619 0.33672,-1.09186 0,-1.42857 -0.71429,-0.71429 -3.57143,0.71428 -4.28571,0 -0.33672,-0.33672 0.33671,-1.09186 0,-1.42858 -0.29206,-0.29205 -3.7193,0.28321 -4.28572,0 -0.60234,-0.30117 -0.82623,-1.1274 -1.42857,-1.42857 -1.97051,-0.98525 -1.27782,1.73008 -2.85714,-1.42857 -0.21296,-0.42592 0.28571,-1.04762 0,-1.42857 -1.21219,-1.61624 -2.85715,-2.85714 -4.28572,-4.28571 z"
       id="path4155"
       inkscape:connector-curvature="0" />
    <path
       style="fill:#2d7f4d;fill-rule:evenodd;stroke:#000000;stroke-width:1px;stroke-linecap:butt;stroke-linejoin:miter;stroke-opacity:1;fill-opacity:1"
       d="m 150,475.2193 c 1.42857,1.90476 2.85714,3.80953 4.28571,5.71429 0.47619,0 1.09186,-0.33672 1.42858,0 1.90476,1.90476 -2.38096,1.42857 1.42857,1.42857 0.47619,0 0.95238,0 1.42857,0 0.47619,0 1.09185,-0.33672 1.42857,0 0.33672,0.33672 -0.33672,1.09185 0,1.42857 0.14286,0.14286 4.14286,0.14286 4.28571,0 0.33672,-0.33672 -0.47619,-1.42857 0,-1.42857 0.47619,0 0,1.90476 0,1.42857 0,-1.42857 0,-2.85714 0,-4.28571 0,-3.33334 0,-6.66667 0,-10 0,-1.90477 0,-3.80953 0,-5.71429 0,-0.47619 0,-0.95238 0,-1.42857 0,-0.47619 0.47619,-1.42857 0,-1.42857 -2.36898,0 -1.00169,2.00338 -1.42857,2.85714 -0.30117,0.60234 -1.05501,0.86824 -1.42857,1.42857 -0.59064,0.88596 -0.83793,1.97118 -1.42857,2.85715 -0.37355,0.56033 -1.1274,0.82623 -1.42857,1.42857 -0.21296,0.42591 0.21296,1.00265 0,1.42857 -0.30117,0.60234 -1.1274,0.82623 -1.42857,1.42857 -0.21296,0.42592 0.33671,1.09185 0,1.42857 -0.33672,0.33672 -0.96163,-0.0934 -1.42857,0 -1.92526,0.38505 -3.80953,0.95238 -5.71429,1.42857 z"
       id="path4157"
       inkscape:connector-curvature="0" />
    <path
       style="fill:#2d7f4d;fill-rule:evenodd;stroke:#000000;stroke-width:1px;stroke-linecap:butt;stroke-linejoin:miter;stroke-opacity:1;fill-opacity:1"
       d="m 134.28571,585.2193 c 6.65924,8.04777 2.63405,3.72797 5.71429,11.42857 0.39545,0.98864 1.09185,1.84699 1.42857,2.85715 0.15059,0.45175 -0.21296,1.00265 0,1.42857 0.30117,0.60234 1.1274,0.82623 1.42857,1.42857 0.21738,0.43476 0,3.64235 0,4.28571 0,0.47619 0,0.95239 0,1.42858 0,0.47619 0.21296,1.00265 0,1.42857 -0.99146,1.98291 -2.54188,1.42857 -4.28571,1.42857 -3.35026,0 0.67343,-0.33672 -2.85714,1.42857 -0.85184,0.42592 -2.18371,-0.67344 -2.85715,0 -0.33671,0.33672 0.33672,1.09185 0,1.42857 -0.33671,0.33672 -0.95238,0 -1.42857,0 -0.67357,0 -7.07811,-0.0647 -7.14286,0 -0.33671,0.33672 0.33672,1.09186 0,1.42857 -0.0647,0.0648 -6.46928,0 -7.14285,0 -0.47619,0 -1.09186,0.33672 -1.42857,0 -0.33672,-0.33671 0,-0.95238 0,-1.42857 0,-1.38409 0.28393,-7.71961 0,-8.57143 -0.33672,-1.01015 -0.95239,-1.90476 -1.42858,-2.85714 -0.97912,-1.95825 -4.00876,-9.14724 -5.71428,-10 -0.77498,-0.38749 -5.3234,0.39089 -5.71429,0 -0.33671,-0.33672 0,-0.95238 0,-1.42857 0,-2.38095 0,-4.76191 0,-7.14286 0,-0.47619 0,-0.95238 0,-1.42857 0,-0.47619 -0.33671,-1.09185 0,-1.42857 0.046,-0.0459 3.93925,0 4.28572,0 6.66666,0 13.33333,0 20,0 0.47619,0 0.95238,0 1.42857,0 0.47619,0 1.09185,-0.33672 1.42857,0 0.33672,0.33672 0,0.95238 0,1.42857 1.42857,0.95238 2.85714,1.90476 4.28571,2.85714 z"
       id="path4159"
       inkscape:connector-curvature="0" />
    <path
       style="fill:#2d7f4d;fill-rule:evenodd;stroke:#000000;stroke-width:1px;stroke-linecap:butt;stroke-linejoin:miter;stroke-opacity:1;fill-opacity:1"
       d="M 933.22656 -17.261719 C 932.15904 -17.301117 931.07143 -17.142578 930 -17.142578 L 917.14258 -17.142578 L 894.28516 -17.142578 C 891.90421 -17.142578 889.51171 -17.379491 887.14258 -17.142578 C 884.72652 -16.900972 882.41605 -15.95645 880 -15.714844 C 877.63086 -15.477931 875.23838 -15.714844 872.85742 -15.714844 L 865.71484 -15.714844 C 863.33388 -15.714844 860.90698 -16.181787 858.57227 -15.714844 C 856.0577 -15.211931 853.8605 -13.668346 851.42773 -12.857422 C 849.5651 -12.236546 847.6196 -11.903924 845.71484 -11.427734 C 843.81007 -10.951543 841.94822 -10.243527 840 -10 C 838.10995 -9.763743 836.17078 -10.269374 834.28516 -10 C 829.9163 -9.375876 828.60677 -7.1553807 824.28516 -5.7148438 C 821.98166 -4.9470097 819.53765 -4.6843342 817.14258 -4.2851562 C 815.83984 -4.0680332 814.10465 -4.7008972 812.85742 -4.2851562 C 809.86917 -3.2890733 807.21194 -1.17071 804.28516 0 C 802.88702 0.559258 801.46089 1.0625134 800 1.4277344 C 799.53803 1.5432274 798.99819 1.2147754 798.57227 1.4277344 C 797.96993 1.7289034 797.74492 2.5562529 797.14258 2.8574219 C 796.71666 3.0703809 796.14075 2.6444629 795.71484 2.8574219 C 794.51016 3.4597609 794.13518 5.2889257 792.85742 5.7148438 C 791.95392 6.0160128 790.90351 5.4136747 790 5.7148438 C 788.72225 6.1407618 788.34725 7.9699266 787.14258 8.5722656 C 786.71666 8.7852246 786.14075 8.3593066 785.71484 8.5722656 C 779.76946 11.544952 787.24093 8.4719694 784.28516 11.427734 C 783.94845 11.764451 783.28334 11.214775 782.85742 11.427734 C 782.25508 11.728903 782.03007 12.556253 781.42773 12.857422 C 781.13469 13.003942 777.34404 13.058888 777.14258 12.857422 C 775.92853 11.64337 775.49922 9.7863176 774.28516 8.5722656 C 773.07111 7.3582136 771.3407 6.7874008 770 5.7148438 C 768.94827 4.8734607 768.19431 3.6988049 767.14258 2.8574219 C 765.80188 1.7848649 764.23097 1.030158 762.85742 0 C 762.31868 -0.404061 762.03007 -1.1265654 761.42773 -1.4277344 C 761.00181 -1.6406934 760.45175 -1.2771494 760 -1.4277344 C 758.98985 -1.7644524 758.09496 -2.3812319 757.14258 -2.8574219 C 756.1902 -3.3336129 755.32928 -4.0763332 754.28516 -4.2851562 C 752.88434 -4.5653223 751.42857 -4.2851562 750 -4.2851562 L 741.42773 -4.2851562 L 722.85742 -4.2851562 L 685.71484 -4.2851562 L 672.85742 -4.2851562 C 670.47647 -4.2851562 668.07186 -4.6218733 665.71484 -4.2851562 C 663.77119 -4.0074912 661.95138 -3.0742419 660 -2.8574219 C 657.63361 -2.5944899 655.23838 -2.8574219 652.85742 -2.8574219 C 651.90504 -2.8574219 650.90351 -3.1585919 650 -2.8574219 C 643.89169 -0.82132087 650.93177 -1.188005 641.42773 0 C 639.53768 0.236257 637.6196 0 635.71484 0 L 628.57227 0 L 621.42773 0 C 619.04678 0 616.61988 0.466944 614.28516 0 C 613.81822 -0.093388 614.62188 -1.0910164 614.28516 -1.4277344 C 613.94845 -1.7644524 613.19414 -1.0910164 612.85742 -1.4277344 C 612.52071 -1.7644524 612.85742 -2.3812319 612.85742 -2.8574219 C 612.55625 -2.2550839 611.7289 -2.0300734 611.42773 -1.4277344 C 611.21477 -1.0018164 611.42773 -0.47619 611.42773 0 L 611.42773 1.4277344 C 611.42773 2.1013024 611.49253 8.5075256 611.42773 8.5722656 C 611.09101 8.9089836 610.33672 8.2355476 610 8.5722656 C 609.66328 8.9089836 610.15058 9.548245 610 10 C 609.66328 11.010152 608.90899 11.84727 608.57227 12.857422 C 607.52127 16.010432 610.39421 12.463212 607.14258 15.714844 C 606.92962 16.140762 607.47929 16.80586 607.14258 17.142578 C 606.80586 17.479295 606.05155 16.80586 605.71484 17.142578 C 605.37812 17.479295 606.05155 18.235549 605.71484 18.572266 C 605.37812 18.908984 604.62188 18.235549 604.28516 18.572266 C 603.94845 18.908984 604.62188 19.663283 604.28516 20 C 603.61173 20.673436 602.27957 19.574083 601.42773 20 C 600.82539 20.30117 600.60234 21.126565 600 21.427734 C 599.14816 21.853652 598.06652 21.196748 597.14258 21.427734 C 595.68169 21.792955 594.20429 22.183987 592.85742 22.857422 C 591.32176 23.625256 590.22314 25.243167 588.57227 25.714844 C 586.74079 26.238123 584.76219 25.714844 582.85742 25.714844 C 581.42885 25.714844 579.92753 25.26309 578.57227 25.714844 C 578.12051 25.865429 578.57227 26.666387 578.57227 27.142578 L 578.57227 32.857422 L 578.57227 45.714844 C 578.57227 46.924345 578.31627 50.659724 578.57227 51.427734 C 578.78523 52.066614 579.52381 52.381232 580 52.857422 C 581.90476 54.762192 583.61138 56.889496 585.71484 58.572266 C 587.05553 59.644826 588.57143 60.475354 590 61.427734 C 593.49512 63.757814 597.14085 66.428098 601.42773 67.142578 C 603.34577 67.462248 610.69077 67.142578 612.85742 67.142578 L 622.85742 67.142578 C 624.28599 67.142578 625.72836 67.344608 627.14258 67.142578 C 629.08623 66.864908 630.9092 65.958364 632.85742 65.714844 C 636.16502 65.301394 639.52409 65.714844 642.85742 65.714844 L 665.71484 65.714844 L 675.71484 65.714844 C 676.3582 65.714844 679.56524 65.497454 680 65.714844 C 683.05672 67.243194 679.80071 67.043906 682.85742 68.572266 C 684.20429 69.245696 685.68169 69.63478 687.14258 70 C 687.60455 70.11549 688.23555 69.66328 688.57227 70 C 688.90899 70.33672 688.23555 71.091014 688.57227 71.427734 C 691.52801 74.383504 688.45505 66.912052 691.42773 72.857422 C 691.64069 73.283342 691.42773 73.808966 691.42773 74.285156 L 691.42773 77.142578 C 691.42773 77.785948 691.64511 80.992974 691.42773 81.427734 C 691.12656 82.030074 690.30117 82.255082 690 82.857422 C 689.78704 83.283342 690.21296 83.859246 690 84.285156 C 689.69883 84.887496 688.87344 85.112504 688.57227 85.714844 C 688.35931 86.140754 688.90899 86.805858 688.57227 87.142578 C 688.23555 87.479288 687.4793 86.805858 687.14258 87.142578 C 686.80586 87.479288 687.35554 88.146346 687.14258 88.572266 C 686.84141 89.174606 686.01601 89.39766 685.71484 90 C 685.27124 90.88719 686.17253 97.656866 685.71484 98.572266 C 684.13551 101.73092 684.82793 99.01474 682.85742 100 C 682.25508 100.30117 682.03007 101.12656 681.42773 101.42773 C 681.00181 101.64069 680.33672 101.09101 680 101.42773 C 679.66328 101.76445 680.33672 102.5207 680 102.85742 C 679.32657 103.53086 678.04609 102.55625 677.14258 102.85742 C 676.13242 103.19414 675.29532 103.94845 674.28516 104.28516 C 673.83341 104.43575 673.30918 104.13458 672.85742 104.28516 C 671.84727 104.62188 671.01015 105.37812 670 105.71484 C 668.48198 106.22084 665.80318 105.20883 664.28516 105.71484 C 663.27501 106.05155 662.43788 106.80586 661.42773 107.14258 C 660.97598 107.29316 660.42592 106.92962 660 107.14258 C 659.39766 107.44375 659.17461 108.2711 658.57227 108.57227 C 658.14635 108.78523 657.4793 108.23555 657.14258 108.57227 C 656.80586 108.90899 657.35554 109.57408 657.14258 110 C 656.54024 111.20468 655.03227 111.73676 654.28516 112.85742 C 653.69452 113.74338 653.40526 114.80178 652.85742 115.71484 C 650.61517 119.45192 647.11445 122.94373 645.71484 127.14258 C 645.41595 128.03922 645.71484 131.70737 645.71484 132.85742 C 645.71484 133.50079 645.49745 136.70781 645.71484 137.14258 C 646.01601 137.74492 646.84141 137.96993 647.14258 138.57227 C 647.5685 139.4241 646.84141 140.52422 647.14258 141.42773 C 648.15803 144.4741 649.10213 144.81697 651.42773 147.14258 L 662.85742 158.57227 C 664.28599 160.00084 665.41018 161.81798 667.14258 162.85742 C 667.95924 163.34742 669.04762 162.85742 670 162.85742 L 678.57227 162.85742 L 691.42773 162.85742 C 693.06582 162.85742 695.66273 163.22738 697.14258 162.85742 C 699.20858 162.34092 700.79142 160.5165 702.85742 160 C 713.03342 157.456 695.61961 164.32442 710 158.57227 C 710.98864 158.17681 711.90504 157.61877 712.85742 157.14258 C 713.8098 156.66639 714.82887 156.30548 715.71484 155.71484 C 716.27517 155.34128 716.54024 154.58633 717.14258 154.28516 C 717.51821 154.09735 722.11039 154.28516 722.85742 154.28516 L 727.14258 154.28516 C 727.14258 153.80897 729.04846 154.28516 728.57227 154.28516 C 729.17461 154.58633 729.39766 155.41367 730 155.71484 C 730.84289 156.13628 733.30255 155.3873 734.28516 155.71484 C 736.30547 156.38827 738.09524 157.61989 740 158.57227 C 741.90476 159.52465 743.88873 160.33207 745.71484 161.42773 C 750.1266 164.07479 754.1605 167.35294 758.57227 170 C 760.39838 171.09566 762.3804 171.90504 764.28516 172.85742 L 767.14258 174.28516 C 768.09496 174.76135 768.967 175.45658 770 175.71484 C 770.92395 175.94582 771.93348 175.48385 772.85742 175.71484 C 774.92343 176.23134 776.48404 178.15462 778.57227 178.57227 C 779.9731 178.85243 781.44829 178.33741 782.85742 178.57227 C 788.8028 179.56316 785.33672 179.8733 790 181.42773 C 790.90351 181.7289 792.00559 181.00181 792.85742 181.42773 C 793.45976 181.7289 793.68283 182.55625 794.28516 182.85742 C 794.71108 183.07038 795.37812 182.5207 795.71484 182.85742 C 796.05155 183.19414 795.50188 183.85925 795.71484 184.28516 C 796.14791 185.15131 800.96887 189.38818 801.42773 190 C 802.06661 190.85183 802.21855 192.00559 802.85742 192.85742 C 804.47367 195.01241 806.95602 196.41728 808.57227 198.57227 C 809.21115 199.4241 809.36112 200.5759 810 201.42773 C 810.80812 202.50523 812.0493 203.20767 812.85742 204.28516 C 814.13518 205.98883 814.53355 208.22807 815.71484 210 C 817.89417 213.269 816.84594 209.10618 818.57227 214.28516 C 818.85621 215.13698 818.57227 221.47333 818.57227 222.85742 C 818.57227 223.33361 818.35931 223.85925 818.57227 224.28516 C 818.87344 224.8875 819.78704 225.07596 820 225.71484 C 820.30117 226.61834 820 227.61989 820 228.57227 L 820 231.42773 L 820 241.42773 L 820 252.85742 L 820 257.14258 C 820 257.61877 820.15059 258.12051 820 258.57227 C 819.66328 259.58242 818.90899 260.41758 818.57227 261.42773 C 818.42168 261.87948 818.78523 262.4315 818.57227 262.85742 C 818.2711 263.45976 817.44375 263.68283 817.14258 264.28516 C 816.92962 264.71108 817.35554 265.28892 817.14258 265.71484 C 816.95293 266.09414 813.23672 269.81035 812.85742 270 C 812.43151 270.21296 811.76445 269.66328 811.42773 270 C 811.37023 270.05749 811.42773 275.19021 811.42773 275.71484 L 811.42773 290 C 811.42773 292.85714 811.83179 295.74384 811.42773 298.57227 C 811.21477 300.06298 810.24756 301.37206 810 302.85742 C 809.53029 305.67569 810.56033 308.62607 810 311.42773 C 809.58235 313.51596 807.65908 315.07657 807.14258 317.14258 C 806.91159 318.06652 807.44375 319.09649 807.14258 320 C 806.92962 320.63888 806.08839 320.8674 805.71484 321.42773 C 804.53355 323.19966 804.13518 325.43891 802.85742 327.14258 C 802.0493 328.22007 800.80812 328.9225 800 330 C 798.72225 331.70367 798.32386 333.94291 797.14258 335.71484 C 794.77359 339.26832 796.81405 335.87813 794.28516 337.14258 C 793.68283 337.44375 793.45976 338.2711 792.85742 338.57227 C 792.43151 338.78523 791.85365 338.35931 791.42773 338.57227 C 789.71345 339.42941 788.85686 342.00028 787.14258 342.85742 C 786.71666 343.07038 786.05155 342.5207 785.71484 342.85742 C 785.37812 343.19414 785.92779 343.85925 785.71484 344.28516 C 785.41367 344.8875 784.76136 345.23864 784.28516 345.71484 C 783.80897 346.19103 783.45976 346.84141 782.85742 347.14258 C 781.87066 347.63596 776.21629 346.64112 775.71484 347.14258 C 775.37812 347.47929 776.05155 348.23555 775.71484 348.57227 C 775.0414 349.2457 773.53086 347.89883 772.85742 348.57227 C 772.52071 348.90899 773.19414 349.66328 772.85742 350 C 772.52071 350.33672 771.76445 349.66328 771.42773 350 C 771.09101 350.33672 771.76445 351.09101 771.42773 351.42773 C 771.09101 351.76445 770.33672 351.09101 770 351.42773 C 769.66328 351.76445 770.21296 352.4315 770 352.85742 C 769.69883 353.45976 768.87344 353.68283 768.57227 354.28516 C 768.35931 354.71108 768.78523 355.28892 768.57227 355.71484 C 768.2711 356.31717 767.44375 356.54024 767.14258 357.14258 C 766.71666 357.99441 767.5685 359.14816 767.14258 360 C 766.54024 361.20468 764.8875 361.65275 764.28516 362.85742 C 764.07221 363.28334 764.49812 363.85925 764.28516 364.28516 C 763.984 364.8875 763.15859 365.1125 762.85742 365.71484 C 762.64446 366.14075 763.19414 366.80586 762.85742 367.14258 C 762.52071 367.47929 761.76445 366.80586 761.42773 367.14258 C 761.03615 367.53416 761.76257 373.28065 761.42773 374.28516 C 761.09101 375.29532 760.25825 376.10957 760 377.14258 C 759.76901 378.06652 760.18678 379.06611 760 380 C 759.70468 381.4766 758.86759 382.80856 758.57227 384.28516 C 758.38549 385.21905 758.99819 386.29074 758.57227 387.14258 C 757.96993 388.34725 756.52296 388.9225 755.71484 390 C 755.07596 390.85184 754.76136 391.90504 754.28516 392.85742 C 753.33278 394.76218 752.10117 396.55196 751.42773 398.57227 C 751.27715 399.02402 751.76445 399.66328 751.42773 400 C 751.09101 400.33672 750.42592 399.78704 750 400 C 745.79599 402.10201 752.2181 401.42773 745.71484 401.42773 C 744.68183 401.68598 743.8098 402.38123 742.85742 402.85742 C 742.38123 403.33361 742.06661 404.07221 741.42773 404.28516 C 740.52422 404.58633 739.50616 404.09839 738.57227 404.28516 C 737.09566 404.58048 735.76177 405.41951 734.28516 405.71484 C 733.38832 405.8942 727.84977 405.36124 727.14258 405.71484 C 726.54024 406.016 726.35371 406.92962 725.71484 407.14258 C 725.70836 407.14458 721.42873 407.14158 721.42773 407.14258 C 721.38183 407.18852 721.42773 411.08126 721.42773 411.42773 C 721.42773 412.0711 721.21035 415.28007 721.42773 415.71484 C 722.14026 417.13988 725.77683 419.65856 727.14258 420 C 728.06652 420.23099 729.04762 420 730 420 L 732.85742 420 L 741.42773 420 C 741.95236 420 747.08508 419.9425 747.14258 420 C 747.4793 420.33672 746.80586 421.09101 747.14258 421.42773 C 747.4793 421.76445 748.17605 421.16359 748.57227 421.42773 C 752.75775 424.21805 750.70828 424.27399 752.85742 428.57227 C 753.45976 429.77695 755.1125 430.22305 755.71484 431.42773 C 755.92779 431.85365 755.56425 432.40567 755.71484 432.85742 C 756.38827 434.87773 758.05577 436.50626 758.57227 438.57227 C 758.80326 439.49621 758.14635 440.5759 758.57227 441.42773 C 758.63572 441.55464 764.03953 446.83553 764.28516 447.14258 C 765.35772 448.48327 765.92853 450.21368 767.14258 451.42773 C 770.00916 454.29432 777.43434 452.28694 781.42773 452.85742 C 783.83143 453.20081 786.18333 453.85081 788.57227 454.28516 C 791.4221 454.80332 794.28543 455.23864 797.14258 455.71484 C 805.2816 457.07134 806.27078 456.15842 812.85742 461.42773 C 813.22927 461.7252 812.85742 462.38123 812.85742 462.85742 L 812.85742 465.71484 C 812.85742 468.47815 812.14468 473.57435 814.28516 475.71484 C 814.62188 476.05155 815.37812 475.37812 815.71484 475.71484 C 816.05155 476.05155 815.37812 476.80586 815.71484 477.14258 C 816.05155 477.47929 816.80586 476.80586 817.14258 477.14258 C 817.4793 477.47929 816.87843 478.17605 817.14258 478.57227 C 817.88969 479.69293 819.04762 480.47535 820 481.42773 L 824.28516 485.71484 C 825.23755 486.66722 826.33446 487.49477 827.14258 488.57227 C 827.78145 489.4241 827.93339 490.5759 828.57227 491.42773 C 829.38039 492.50523 830.82539 493.08049 831.42773 494.28516 C 831.85365 495.137 831.12656 496.23907 831.42773 497.14258 C 831.64069 497.78145 832.55625 497.96993 832.85742 498.57227 C 833.07038 498.99819 832.70684 499.54825 832.85742 500 C 833.19414 501.01015 833.94845 501.84727 834.28516 502.85742 C 834.43575 503.30918 833.94845 503.94845 834.28516 504.28516 C 834.62188 504.62188 835.50188 503.85925 835.71484 504.28516 C 836.14075 505.137 835.41367 506.23907 835.71484 507.14258 C 835.9278 507.78145 836.76902 508.01194 837.14258 508.57227 C 837.73322 509.45823 838.17681 510.43909 838.57227 511.42773 C 841.04492 517.60936 838.38258 514.09743 842.85742 518.57227 C 843.33361 519.04846 843.68283 519.69883 844.28516 520 C 844.71993 520.21738 847.9289 520 848.57227 520 L 861.42773 520 C 862.8563 520 864.43708 519.36112 865.71484 520 C 866.31717 520.30117 864.76136 520.95154 864.28516 521.42773 L 862.85742 522.85742 C 862.38123 523.33361 862.03007 523.98399 861.42773 524.28516 C 861.00181 524.49812 860.33672 523.94845 860 524.28516 C 859.24708 525.03809 859.16291 526.25661 858.57227 527.14258 C 857.82516 528.26324 856.31717 528.79532 855.71484 530 C 855.50188 530.42592 855.71484 530.95154 855.71484 531.42773 L 855.71484 532.85742 L 855.71484 541.42773 L 855.71484 542.85742 C 855.71484 543.33361 855.9278 543.85925 855.71484 544.28516 C 855.41367 544.8875 854.58633 545.1125 854.28516 545.71484 C 854.07221 546.14075 854.62188 546.80586 854.28516 547.14258 C 853.94845 547.47929 853.19414 546.80586 852.85742 547.14258 C 852.52071 547.47929 853.19414 548.23555 852.85742 548.57227 C 852.1045 549.32519 850.95238 549.52381 850 550 C 849.04762 550.47619 848.17558 551.16948 847.14258 551.42773 C 846.21863 551.65872 845.18867 551.12656 844.28516 551.42773 C 843.64629 551.64069 843.45976 552.55625 842.85742 552.85742 C 842.43151 553.07038 841.90392 552.85742 841.42773 552.85742 L 840 552.85742 L 837.14258 552.85742 C 837.14258 553.33361 835.71484 553.33361 835.71484 552.85742 C 835.23865 552.85742 834.71108 552.64446 834.28516 552.85742 C 833.68283 553.15859 833.45976 553.98399 832.85742 554.28516 C 832.43151 554.49812 831.85365 554.07221 831.42773 554.28516 C 827.89715 556.05045 831.92252 555.71484 828.57227 555.71484 C 824.76275 555.71484 829.04734 555.23782 827.14258 557.14258 C 826.80586 557.47929 826.14075 556.92962 825.71484 557.14258 C 819.76946 560.11526 827.24093 557.04423 824.28516 560 C 823.94845 560.33672 823.19414 559.66328 822.85742 560 C 822.18399 560.67343 823.28334 562.00559 822.85742 562.85742 C 822.55625 563.45976 821.80129 563.72483 821.42773 564.28516 C 820.83709 565.17113 820.47619 566.1902 820 567.14258 C 819.52381 568.09496 818.96772 569.01136 818.57227 570 C 817.45375 572.79629 817.06171 575.87853 815.71484 578.57227 C 814.947 580.10794 813.92998 581.51673 812.85742 582.85742 C 812.01604 583.90915 810.60234 584.51016 810 585.71484 C 808.44964 588.81556 808.69294 592.61411 807.14258 595.71484 C 806.84141 596.31717 805.92779 596.5037 805.71484 597.14258 C 805.41367 598.04608 806.14075 599.14816 805.71484 600 C 805.59688 600.23591 801.80781 600 801.42773 600 C 798.07748 600 802.10285 599.66244 798.57227 601.42773 C 798.14635 601.64069 797.5685 601.21477 797.14258 601.42773 C 796.54024 601.7289 796.31717 602.55625 795.71484 602.85742 C 794.36797 603.53086 792.63241 603.38166 791.42773 604.28516 C 790.5759 604.92404 790.85184 606.5037 790 607.14258 C 788.79532 608.04608 786.77963 607.50747 785.71484 608.57227 C 785.0414 609.2457 785.71484 610.47535 785.71484 611.42773 L 785.71484 612.85742 L 785.71484 620 L 785.71484 621.42773 C 785.71484 621.90392 785.50188 622.4315 785.71484 622.85742 C 786.01601 623.45976 786.84141 623.68283 787.14258 624.28516 C 787.35554 624.71108 786.92962 625.28892 787.14258 625.71484 C 787.91041 627.2505 789.23217 628.46433 790 630 C 790.21296 630.42592 789.66328 631.09101 790 631.42773 C 790.33672 631.76445 791.09101 631.09101 791.42773 631.42773 C 791.47363 631.47367 791.42773 635.36837 791.42773 635.71484 C 791.42773 636.19103 791.76445 636.80586 791.42773 637.14258 C 791.09101 637.47929 790.42592 636.92962 790 637.14258 C 789.39766 637.44375 789.04846 638.09608 788.57227 638.57227 C 788.09608 639.04846 787.51613 639.43967 787.14258 640 C 786.55194 640.88596 786.6008 642.26678 785.71484 642.85742 C 784.92241 643.38571 783.64985 642.32914 782.85742 642.85742 C 781.97146 643.44806 782.01837 644.82887 781.42773 645.71484 C 781.02405 646.32035 777.73365 649.70446 777.14258 650 C 776.71666 650.21296 776.14075 649.78704 775.71484 650 C 774.51016 650.60234 774.0621 652.25508 772.85742 652.85742 C 770.80399 653.88414 771.20774 653.11922 771.60352 652.61914 C 771.37772 652.87305 771.02473 653.26043 770 654.28516 C 769.14816 654.71108 767.81601 653.61173 767.14258 654.28516 C 766.80586 654.62188 767.14258 655.23865 767.14258 655.71484 L 767.14258 664.28516 C 767.14258 664.76135 766.80586 665.37812 767.14258 665.71484 C 767.4793 666.05155 768.09608 665.71484 768.57227 665.71484 L 771.42773 665.71484 L 784.28516 665.71484 L 788.57227 665.71484 C 789.04846 665.71484 789.66328 665.37812 790 665.71484 C 790.33672 666.05155 790 666.66639 790 667.14258 L 790 668.57227 L 790 677.14258 L 790 678.57227 C 790 679.04846 789.78704 679.57408 790 680 C 790.30117 680.60234 791.05418 680.8674 791.42773 681.42773 C 792.29772 682.73271 792.64743 684.89597 794.28516 685.71484 C 794.71108 685.92779 795.28892 685.50188 795.71484 685.71484 C 796.31717 686.016 796.66639 686.66639 797.14258 687.14258 L 800 690 C 800.95238 690.95238 802.16446 691.70249 802.85742 692.85742 C 803.63217 694.14868 803.51041 695.85132 804.28516 697.14258 C 804.97812 698.29751 806.1902 699.04762 807.14258 700 C 809.04734 701.90476 811.17466 703.61138 812.85742 705.71484 C 812.87695 705.73924 816.06467 711.06843 817.14258 711.42773 C 817.9784 711.70634 824.48865 711.42773 825.71484 711.42773 C 826.19103 711.42773 826.80586 711.76445 827.14258 711.42773 C 827.4793 711.09101 826.80586 710.33672 827.14258 710 C 827.4793 709.66328 828.09608 710 828.57227 710 C 829.76941 710 835.10767 709.69642 835.71484 710 C 836.14075 710.21296 835.37812 711.09101 835.71484 711.42773 C 836.05155 711.76445 836.66639 711.42773 837.14258 711.42773 L 838.57227 711.42773 L 847.14258 711.42773 C 849.52353 711.42773 851.91877 711.1648 854.28516 711.42773 C 856.23654 711.64455 858.05178 712.61389 860 712.85742 C 861.89005 713.09368 863.83599 712.54428 865.71484 712.85742 C 866.76514 713.03247 867.58363 713.88971 868.57227 714.28516 C 869.97041 714.84442 871.42885 715.23865 872.85742 715.71484 C 874.28599 716.19103 875.65722 716.89502 877.14258 717.14258 C 879.16202 717.47915 882.07873 717.14258 884.28516 717.14258 L 898.57227 717.14258 L 902.85742 717.14258 C 903.33361 717.14258 903.94845 716.80586 904.28516 717.14258 C 904.62188 717.47929 903.94845 718.23555 904.28516 718.57227 C 904.62188 718.90899 905.37812 718.23555 905.71484 718.57227 C 906.05155 718.90899 905.71484 719.52381 905.71484 720 L 908.57227 721.42773 C 910.66409 722.12501 912.89174 720.07057 914.28516 722.85742 C 914.73579 723.75866 913.83454 729.09876 914.28516 730 C 914.58633 730.60234 915.41367 730.82539 915.71484 731.42773 C 916.28626 732.57059 915.14341 734.57198 915.71484 735.71484 C 916.01601 736.31717 916.84141 736.54024 917.14258 737.14258 C 917.5685 737.99441 916.46914 739.32656 917.14258 740 C 917.4793 740.33672 918.23555 739.66328 918.57227 740 C 918.90899 740.33672 918.23555 741.09101 918.57227 741.42773 C 918.90899 741.76445 919.66328 741.09101 920 741.42773 C 920.33672 741.76445 919.66328 742.52071 920 742.85742 C 920.33672 743.19414 921.09101 742.52071 921.42773 742.85742 C 921.76445 743.19414 921.42773 743.80897 921.42773 744.28516 C 921.42773 744.92853 921.64511 748.13751 921.42773 748.57227 C 920.33375 750.76024 918.88255 749.68776 917.14258 751.42773 C 914.99931 753.571 915.71484 757.29029 915.71484 760 L 915.71484 771.42773 L 915.71484 772.85742 C 915.71484 773.33361 915.37812 773.94845 915.71484 774.28516 C 916.05155 774.62188 916.69082 774.13458 917.14258 774.28516 C 918.15273 774.62188 918.98985 775.37812 920 775.71484 C 921.86263 776.33571 923.827 776.60319 925.71484 777.14258 C 927.16274 777.55626 928.50929 778.35931 930 778.57227 C 931.88562 778.84164 933.81007 778.57227 935.71484 778.57227 L 942.85742 778.57227 L 975.71484 778.57227 L 987.14258 778.57227 C 989.04734 778.57227 990.97181 778.84164 992.85742 778.57227 C 995.26112 778.22888 997.61905 777.61877 1000 777.14258 L 1005.7148 778.57227 C 1006.191 779.04846 1006.5402 779.69883 1007.1426 780 C 1007.5685 780.21296 1008.2356 779.66328 1008.5723 780 C 1008.909 780.33672 1008.3594 781.00181 1008.5723 781.42773 C 1008.762 781.80703 1012.4781 785.52519 1012.8574 785.71484 C 1013.2834 785.92779 1013.9485 785.37812 1014.2852 785.71484 C 1014.6219 786.05155 1014.2852 786.66639 1014.2852 787.14258 C 1014.2852 787.6672 1014.2272 792.79992 1014.2852 792.85742 C 1014.6219 793.19414 1015.2386 792.85742 1015.7148 792.85742 L 1017.1426 792.85742 C 1017.6187 792.85742 1018.2356 793.19414 1018.5723 792.85742 C 1018.909 792.52071 1018.3594 791.85365 1018.5723 791.42773 C 1018.8735 790.82539 1019.787 790.63888 1020 790 C 1020.3012 789.09649 1020 788.09496 1020 787.14258 L 1020 784.28516 L 1020 768.57227 L 1020 742.85742 L 1020 732.85742 C 1020 732.38123 1020.1506 731.87949 1020 731.42773 C 1019.6633 730.41758 1018.8306 729.60527 1018.5723 728.57227 C 1018.3413 727.64832 1018.7289 726.65426 1018.5723 725.71484 C 1018.2496 723.77817 1017.4202 721.94365 1017.1426 720 C 1016.8058 717.64298 1017.6095 715.19214 1017.1426 712.85742 C 1016.8472 711.38082 1015.9623 710.05763 1015.7148 708.57227 C 1015.4799 707.16313 1015.9496 705.6943 1015.7148 704.28516 C 1015.4672 702.79981 1014.7614 701.42857 1014.2852 700 C 1013.3328 697.14286 1012.3801 694.28487 1011.4277 691.42773 C 1010.9515 689.99916 1010.2953 688.61918 1010 687.14258 C 1009.925 686.76839 1009.7716 679.02906 1010 678.57227 C 1010.6023 677.36759 1012.2551 676.91951 1012.8574 675.71484 C 1013.0704 675.28892 1012.7069 674.73692 1012.8574 674.28516 C 1013.1942 673.27501 1013.809 672.38011 1014.2852 671.42773 C 1015.9602 668.07771 1017.4881 665.22243 1018.5723 661.42773 C 1018.834 660.51199 1018.3856 659.50615 1018.5723 658.57227 C 1019.5199 653.83429 1019.9039 655.23726 1021.4277 651.42773 C 1021.9869 650.02959 1022.2982 648.54072 1022.8574 647.14258 C 1023.2529 646.15394 1024.027 645.31817 1024.2852 644.28516 C 1024.5162 643.36122 1024.0984 642.36162 1024.2852 641.42773 C 1025.1076 637.31559 1027.7499 634.11214 1028.5723 630 C 1028.7591 629.06611 1028.3413 628.06652 1028.5723 627.14258 C 1030.2455 620.44977 1029.7545 628.12054 1031.4277 621.42773 C 1031.7514 620.13266 1031.4277 615.94469 1031.4277 614.28516 L 1031.4277 612.85742 C 1031.4277 612.38123 1031.2147 611.85365 1031.4277 611.42773 C 1031.7288 610.82539 1032.5563 610.60234 1032.8574 610 C 1033.0704 609.57408 1032.7069 609.02402 1032.8574 608.57227 C 1033.1942 607.56212 1034.027 606.74784 1034.2852 605.71484 C 1034.7472 603.86695 1033.8232 601.84789 1034.2852 600 C 1034.9072 597.5122 1037.4704 595.7262 1037.1426 592.85742 C 1037.3293 591.92354 1037.1426 590.95238 1037.1426 590 L 1037.1426 584.28516 L 1037.1426 562.85742 L 1037.1426 547.14258 L 1037.1426 542.85742 C 1037.1426 541.42885 1037.4227 539.9731 1037.1426 538.57227 C 1036.9337 537.52815 1035.9236 536.75895 1035.7148 535.71484 C 1035.4346 534.31401 1035.7148 532.8563 1035.7148 531.42773 L 1035.7148 522.85742 C 1035.7148 521.42885 1035.9496 519.9814 1035.7148 518.57227 C 1035.1449 515.15272 1032.7222 512.18953 1032.8574 508.57227 C 1032.6554 507.15805 1033.0923 505.6943 1032.8574 504.28516 C 1032.6099 502.79981 1031.8414 501.44791 1031.4277 500 C 1030.3489 496.22432 1029.7007 492.33343 1028.5723 488.57227 C 1024.9373 476.45551 1020.2926 464.62905 1015.7148 452.85742 C 1013.8559 448.07742 1011.8008 443.37445 1010 438.57227 C 1009.4713 437.1623 1008.8676 435.76177 1008.5723 434.28516 C 1008.3856 433.35128 1008.5723 432.38011 1008.5723 431.42773 C 1008.5723 427.38428 1008.0304 428.57227 1011.4277 428.57227 C 1011.9039 428.57227 1012.5207 428.90899 1012.8574 428.57227 C 1013.5309 427.89883 1012.4315 426.56667 1012.8574 425.71484 C 1013.1586 425.1125 1013.984 424.8875 1014.2852 424.28516 C 1014.7111 423.43333 1013.8593 422.27957 1014.2852 421.42773 C 1014.5864 420.82539 1015.4136 420.60234 1015.7148 420 C 1015.9277 419.57408 1015.5993 419.03424 1015.7148 418.57227 C 1018.4379 407.67979 1015.9002 421.93303 1018.5723 408.57227 C 1018.886 407.00416 1018.5723 403.15261 1018.5723 401.42773 L 1018.5723 387.14258 L 1018.5723 341.42773 L 1018.5723 330 C 1018.5723 328.09524 1018.8855 326.16401 1018.5723 324.28516 C 1018.2496 322.34849 1017.4653 320.50894 1017.1426 318.57227 C 1016.7594 316.2731 1017.669 312.10563 1017.1426 310 C 1016.8843 308.967 1015.9236 308.18669 1015.7148 307.14258 C 1015.4346 305.74175 1015.7148 304.28599 1015.7148 302.85742 L 1015.7148 298.57227 C 1015.7148 297.1437 1015.9496 295.6943 1015.7148 294.28516 C 1015.4672 292.79981 1014.5805 291.4766 1014.2852 290 C 1014.0984 289.06611 1014.5162 288.06652 1014.2852 287.14258 C 1014.027 286.10957 1013.1157 285.31817 1012.8574 284.28516 C 1012.511 282.89925 1013.3092 281.35526 1012.8574 280 C 1012.5207 278.98985 1011.6859 278.17558 1011.4277 277.14258 C 1010.8721 274.9203 1011.8771 272.24716 1011.4277 270 C 1011.1324 268.5234 1010.5593 267.11298 1010 265.71484 C 1009.6045 264.7262 1008.7812 263.90154 1008.5723 262.85742 C 1008.2922 261.45659 1008.5723 260.00084 1008.5723 258.57227 L 1008.5723 250 L 1008.5723 217.14258 L 1008.5723 175.71484 L 1008.5723 162.85742 C 1008.5723 161.19789 1008.2486 157.0099 1008.5723 155.71484 C 1008.8306 154.68183 1009.7417 153.89042 1010 152.85742 C 1010.231 151.93348 1010 150.95238 1010 150 L 1010 147.14258 L 1010 138.57227 L 1010 111.42773 L 1010 61.427734 L 1010 47.142578 C 1010 45.128761 1010.3442 40.293143 1010 38.572266 C 1009.6149 36.64701 1009.1932 34.720052 1008.5723 32.857422 C 1007.8989 30.837117 1006.2313 29.208582 1005.7148 27.142578 C 1005.4838 26.218632 1005.9458 25.209101 1005.7148 24.285156 C 1005.4565 23.252154 1004.5435 22.460736 1004.2852 21.427734 C 1003.7077 19.117871 1004.6766 16.633713 1004.2852 14.285156 C 1004.0377 12.799798 1003.1528 11.476603 1002.8574 10 C 1002.4839 8.132227 1003.3194 6.1330462 1002.8574 4.2851562 C 1002.5992 3.2521542 1001.7644 2.4378864 1001.4277 1.4277344 C 1001.1265 0.52422637 1002.1011 -0.75429938 1001.4277 -1.4277344 C 1001.3702 -1.4852244 996.23946 -1.4277344 995.71484 -1.4277344 L 978.57227 -1.4277344 C 977.97132 -1.4277344 970.42497 -1.2152524 970 -1.4277344 C 969.39766 -1.7289034 969.21115 -2.6444639 968.57227 -2.8574219 C 966.76525 -3.4597609 964.70531 -2.3954499 962.85742 -2.8574219 C 960.79142 -3.3739229 959.11985 -4.9239348 957.14258 -5.7148438 C 953.05411 -7.3502317 953.35025 -6.5621136 950 -8.5722656 C 944.85264 -11.660685 940.37286 -15.925039 934.28516 -17.142578 C 933.93495 -17.21262 933.5824 -17.248586 933.22656 -17.261719 z M 771.60352 652.61914 C 771.91179 652.27249 771.84277 652.31684 771.60352 652.61914 z M 835.71484 552.85742 C 835.9078 552.85742 836.1754 552.78203 836.42969 552.7207 C 836.05569 552.63041 835.71484 552.57372 835.71484 552.85742 z M 836.42969 552.7207 C 836.68343 552.78196 836.95009 552.85742 837.14258 552.85742 C 837.14258 552.57419 836.80294 552.63068 836.42969 552.7207 z M 728.57227 154.28516 C 728.44679 154.22242 728.26918 154.24417 728.08398 154.28516 L 728.57227 154.28516 z M 728.08398 154.28516 L 727.14258 154.28516 C 727.14258 154.62107 727.64053 154.3833 728.08398 154.28516 z M 612.85742 -2.8574219 C 612.98374 -3.1100515 612.94063 -3.4647514 612.85742 -3.8378906 L 612.85742 -2.8574219 z M 612.85742 -3.8378906 L 612.85742 -4.2851562 C 612.85742 -4.7613462 613.33361 -5.7148438 612.85742 -5.7148438 C 612.18749 -5.7148438 612.66007 -4.7229311 612.85742 -3.8378906 z "
       transform="translate(0,52.362161)"
       id="path4170" />
    <path
       style="fill:#2d7f4d;fill-rule:evenodd;stroke:#000000;stroke-width:1px;stroke-linecap:butt;stroke-linejoin:miter;stroke-opacity:1;fill-opacity:1"
       d="m 495.71429,340.93359 c -1.8445,4.68785 -1.42858,9.41004 -1.42858,14.28571 0,0.95238 -0.52828,2.06472 0,2.85715 0.59065,0.88596 2.00531,0.78969 2.85715,1.42857 1.61624,1.21218 2.60472,3.16505 4.28571,4.28571 0.88596,0.59064 1.84699,1.09185 2.85714,1.42857 0.90351,0.30117 2.18371,-0.67343 2.85715,0 0.33671,0.33672 -0.33672,1.09186 0,1.42857 0.33671,0.33672 0.95238,0 1.42857,0 0.47619,0 0.95238,0 1.42857,0 7.14286,0 14.28571,0 21.42857,0 3.33334,0 6.66667,0 10,0 0.64337,0 3.85095,0.21739 4.28572,0 0.60233,-0.30117 0.82623,-1.1274 1.42857,-1.42857 0.85183,-0.42592 2.18371,0.67344 2.85714,0 0.33672,-0.33672 -0.33672,-1.09185 0,-1.42857 0.33672,-0.33672 1.21561,0.42592 1.42857,0 0.44372,-0.88744 -0.35555,-7.14923 0,-8.57143 0.25825,-1.033 1.09186,-1.84699 1.42857,-2.85714 0.30117,-0.90351 -0.42591,-2.00531 0,-2.85714 0.30117,-0.60234 1.12741,-0.82624 1.42857,-1.42857 0.21296,-0.42592 -0.33671,-1.09186 0,-1.42858 0.33672,-0.33671 1.00266,0.21296 1.42858,0 1.40575,-0.70287 4.30853,-5.0114 5.71428,-5.71428 0.42592,-0.21296 1.00266,0.21296 1.42857,0 1.71429,-0.85714 2.57143,-3.42857 4.28572,-4.28572 1.14285,-0.57142 3.14285,0.57143 4.28571,0 1.20468,-0.60233 1.65247,-2.2548 2.85714,-2.85714 0.85184,-0.42592 2.18371,0.67344 2.85715,0 0.33671,-0.33672 -0.33672,-1.09185 0,-1.42857 0.75292,-0.75292 2.0053,-0.7897 2.85714,-1.42857 1.61624,-1.21218 2.85714,-2.85714 4.28571,-4.28572 0.95239,-0.95238 1.90477,-1.90476 2.85715,-2.85714 0.47619,-0.47619 1.05501,-0.86824 1.42857,-1.42857 0.59064,-0.88596 0.83793,-1.97118 1.42857,-2.85714 1.42857,-2.14286 2.85714,-1.42857 4.28571,-4.28572 0.42592,-0.85183 -0.30116,-1.95363 0,-2.85714 0.21296,-0.63888 1.12741,-0.82623 1.42858,-1.42857 0.21295,-0.42592 0,-0.95238 0,-1.42857 0,-0.95238 0,-1.90477 0,-2.85715 0,-0.34646 0.0459,-4.23977 0,-4.28571 -2.70765,-2.70764 -3.70721,-0.56966 -7.14286,-1.42857 -0.65333,-0.16333 -0.7897,-1.21561 -1.42857,-1.42857 -6.50327,0 -0.0817,0.67343 -4.28572,-1.42857 -0.85183,-0.42592 -2.1837,0.67343 -2.85714,0 -0.33672,-0.33672 0.21296,-1.00266 0,-1.42858 -0.60234,-1.20467 -2.11003,-1.73648 -2.85714,-2.85714 -1.18129,-1.77192 -1.57939,-4.01061 -2.85715,-5.71428 -0.80812,-1.0775 -2.16418,-1.70222 -2.85714,-2.85715 -0.77475,-1.29125 -0.86931,-2.88757 -1.42857,-4.28571 -0.39545,-0.98864 -1.03312,-1.86851 -1.42857,-2.85714 -0.55926,-1.39815 -0.86932,-2.88758 -1.42857,-4.28572 -0.39546,-0.98864 -1.03312,-1.86851 -1.42857,-2.85714 -0.55926,-1.39815 -0.86932,-2.88757 -1.42858,-4.28572 -0.7909,-1.97727 -2.34064,-3.64828 -2.85714,-5.71428 -0.23098,-0.92395 0.30117,-1.95364 0,-2.85714 -0.21296,-0.63888 -1.05502,-0.86824 -1.42857,-1.42858 -0.59064,-0.88596 -0.83793,-1.97118 -1.42857,-2.85714 -0.37356,-0.56033 -1.21561,-0.78969 -1.42857,-1.42857 -0.30117,-0.90351 0.23098,-1.9332 0,-2.85714 -1.0358,-4.14319 -1.11454,-1.67181 -2.85715,-4.28572 -0.59064,-0.88596 -0.83793,-1.97118 -1.42857,-2.85714 -0.37355,-0.56033 -0.95238,-0.95238 -1.42857,-1.42857 -0.47619,-0.47619 -0.82623,-1.1274 -1.42857,-1.42857 -0.42592,-0.21296 -1.00265,0.21296 -1.42857,0 -0.60234,-0.30117 -0.82623,-1.12741 -1.42857,-1.42857 -0.42592,-0.21296 -0.95238,0 -1.42857,0 -0.47619,0 -0.95238,0 -1.42858,0 -3.80952,0 -7.61904,0 -11.42857,0 -0.95238,0 -1.90476,0 -2.85714,0 -0.47619,0 -1.00265,-0.21296 -1.42857,0 -1.71429,0.85714 -2.57143,3.42857 -4.28572,4.28571 -0.5139,0.25695 -7.10144,-0.008 -7.14285,0 -1.04412,0.20882 -1.80684,1.25352 -2.85715,1.42857 -1.87884,0.31314 -3.82866,-0.26937 -5.71428,0 -1.49071,0.21296 -2.85714,0.95238 -4.28572,1.42857 -2.85714,0.95238 -5.77514,1.73863 -8.57142,2.85715 -0.98864,0.39545 -1.82414,1.17032 -2.85715,1.42857 -0.92394,0.23098 -1.90476,0 -2.85714,0 -0.47619,0 -1.00265,-0.21296 -1.42857,0 -0.60234,0.30117 -0.82623,1.1274 -1.42857,1.42857 -0.56642,0.28321 -3.99366,-0.29205 -4.28572,0 -0.33671,0.33672 0,0.95238 0,1.42857 0,0.47619 0,0.95238 0,1.42857 0,2.38095 0,4.76191 0,7.14286 0,2.38095 -0.57746,4.83299 0,7.14286 0.41642,1.66566 2.08931,2.75004 2.85715,4.28571 0.67343,1.34687 0.48787,3.10985 1.42857,4.28571 1.07255,1.3407 3.07166,1.64309 4.28571,2.85715 0.75292,0.75292 1.09186,1.84699 1.42857,2.85714 0.15059,0.45175 -0.33671,1.09185 0,1.42857 0.33672,0.33672 1.09186,-0.33672 1.42857,0 0.33672,0.33672 0,0.95238 0,1.42857 0,3.33334 0,6.66667 0,10 0,6.19048 0,12.38095 0,18.57143 0,0.99363 -0.25831,6.62624 0,7.14286 0.30117,0.60234 1.21562,0.78969 1.42858,1.42857 0,6.50326 -0.67344,0.0817 1.42857,4.28571 0.21296,0.42592 -0.33672,1.09186 0,1.42858 0.33671,0.33671 1.09185,-0.33672 1.42857,0 0.67343,0.67343 -0.67344,2.1837 0,2.85714 0.33672,0.33672 1.09185,-0.33672 1.42857,0 0.33672,0.33672 0,0.95238 0,1.42857 0,4.5955 -0.0301,2.89729 -4.28571,8.57143 z"
       id="path4172"
       inkscape:connector-curvature="0" />
    <path
       style="fill:#2d7f4d;fill-rule:evenodd;stroke:#000000;stroke-width:1px;stroke-linecap:butt;stroke-linejoin:miter;stroke-opacity:1;fill-opacity:1"
       d="m 681.42857,902.36216 c 0,-2.85714 0,-5.71429 0,-8.57143 0,-2.85714 0,-5.71428 0,-8.57143 0,-0.47619 0,-0.95238 0,-1.42857 0,-0.47619 -0.21296,-1.00265 0,-1.42857 1.08927,-2.17854 3.75411,-1.42857 5.71429,-1.42857 5.71428,0 11.42857,0 17.14285,0 1.27675,0 6.68761,0.22762 7.14286,0 0.60234,-0.30117 0.82623,-1.1274 1.42857,-1.42857 0.42592,-0.21296 1.09186,0.33671 1.42857,0 2.95577,-2.95577 -4.5168,0.11554 1.42858,-2.85715 0.42591,-0.21295 1.00265,0.21296 1.42857,0 0.60234,-0.30117 0.82623,-1.1274 1.42857,-1.42857 0.42592,-0.21296 1.09185,0.33672 1.42857,0 0.33672,-0.33671 -0.33672,-1.09185 0,-1.42857 0.33672,-0.33672 0.95238,0 1.42857,0 2.85714,0 5.71429,0 8.57143,0 0.89584,0 5.53782,-0.17646 5.71429,0 0.33671,0.33672 -0.33672,1.09186 0,1.42857 0.33671,0.33672 1.13109,-0.37184 1.42857,0 1.73455,2.1682 2.81409,4.78827 4.28571,7.14286 0.90997,1.45595 2.08931,2.75005 2.85714,4.28571 0.67344,1.34687 0.75514,2.93885 1.42858,4.28572 0.30117,0.60234 1.05501,0.86824 1.42857,1.42857 0.59064,0.88596 1.09185,1.84699 1.42857,2.85714 0.30117,0.90351 -0.67344,2.18371 0,2.85715 0.67343,0.67343 2.18371,-0.67344 2.85714,0 0.33672,0.33671 0,0.95238 0,1.42857 0,0.47619 0.42592,1.21561 0,1.42857 -1.7561,0.87805 -3.82644,0.88919 -5.71428,1.42857 -1.44791,0.41369 -2.80911,1.13325 -4.28572,1.42857 -0.93388,0.18678 -1.9332,-0.23098 -2.85714,0 -1.033,0.25825 -1.84699,1.09186 -2.85714,1.42857 -0.45176,0.15059 -1.09186,-0.33671 -1.42858,0 -0.33671,0.33672 0.33672,1.09186 0,1.42857 -0.33671,0.33672 -0.95238,0 -1.42857,0 -1.42857,0 -2.85714,0 -4.28571,0 -4.76191,0 -9.52381,0 -14.28572,0 -2.38095,0 -4.7619,0 -7.14285,0 -0.47619,0 -0.95238,0 -1.42857,0 -0.47619,0 -1.09186,0.33672 -1.42858,0 -0.34375,-0.34375 0.34376,-5.37052 0,-5.71428 -0.33671,-0.33672 -1.00265,0.21296 -1.42857,0 -0.60234,-0.30117 -0.78969,-1.21561 -1.42857,-1.42857 -0.81266,-0.27089 -5.79737,0 -7.14286,0 -1.05311,0 -6.54988,-0.23719 -7.14285,0 -1.97728,0.79091 -3.80953,1.90476 -5.71429,2.85714 z"
       id="path4174"
       inkscape:connector-curvature="0" />
    <path
       style="fill:#2d7f4d;fill-rule:evenodd;stroke:#000000;stroke-width:1.19774151px;stroke-linecap:butt;stroke-linejoin:miter;stroke-opacity:1;fill-opacity:1"
       d="m 770.0948,910.4151 c 2.70895,-0.78175 8.47551,-2.00397 11.3956,-4.11066 1.53124,-1.10471 2.80535,-2.83976 4.27335,-4.11067 1.82085,-1.57638 3.79855,-2.74044 5.69781,-4.11066 0.94963,-0.68512 1.84166,-1.5709 2.8489,-2.05535 0.9009,-0.43331 2.17741,0.9689 2.8489,0 0.33575,-0.48444 -0.42468,-1.74894 0,-2.05533 0.84938,-0.61278 1.89928,0 2.84891,0 2.37408,0 4.74816,0 7.12225,0 2.37409,0 4.74817,0 7.12226,0 0.47481,0 0.94963,0 1.42444,0 0.47482,0 0.99977,-0.3064 1.42445,0 1.30384,0.94064 2.50192,4.66398 2.84891,6.16601 0.15015,0.64995 -0.33575,1.57088 0,2.05533 0.67149,0.96889 1.99952,-0.61278 2.8489,0 0.60061,0.43331 0.82385,1.62203 1.42445,2.05533 0.42469,0.3064 0.99976,-0.30639 1.42445,0 6.51915,4.70324 -6.04453,-0.85187 4.27336,4.11067 0.45045,0.21666 0.99976,-0.30639 1.42445,0 0.6006,0.4333 0.82385,1.62203 1.42445,2.05533 0.42469,0.3064 0.99976,-0.30638 1.42445,0 0.6006,0.43331 0.82385,1.62205 1.42445,2.05535 0.42469,0.30638 1.08871,-0.48445 1.42445,0 0.33575,0.48444 0,1.37022 0,2.05533 0,0.68511 0,1.37022 0,2.05534 0,3.42555 0,6.8511 0,10.27667 0,0.68511 0.33575,1.57089 0,2.05534 -0.33574,0.48443 -1.0887,-0.48445 -1.42445,0 -0.33575,0.48443 0.42469,1.74894 0,2.05533 -0.33496,0.24165 -4.76205,0 -5.6978,0 -4.27336,0 -8.54671,0 -12.82007,0 -1.34281,0 -2.95093,-0.31802 -4.27334,0 -2.38817,0.57431 -4.71596,1.66955 -7.12226,2.05533 -1.88765,0.30264 -3.79853,0 -5.6978,0 -0.94963,0 -1.91771,-0.26872 -2.84891,0 -1.47234,0.42489 -2.80101,1.63045 -4.27335,2.05534 -0.9312,0.26872 -1.89927,0 -2.8489,0 -2.37409,0 -4.74817,0 -7.12226,0 -2.37408,0 -4.74817,0 -7.12225,0 -0.47482,0 -0.94964,0 -1.42445,0 -0.47482,0 -0.99976,0.30639 -1.42445,0 -2.79627,-2.01736 -0.64129,-3.90595 -1.42445,-6.166 -0.3003,-0.86661 -1.12415,-1.18874 -1.42445,-2.05534 -0.42469,-1.22557 0.42468,-2.8851 0,-4.11068 -0.3003,-0.8666 -1.12416,-1.18872 -1.42446,-2.05533 -0.21234,-0.61278 -0.0931,-1.38353 0,-2.05533 0.38395,-2.76994 0.94964,-5.48089 1.42446,-8.22135 z"
       id="path4176"
       inkscape:connector-curvature="0" />
    <text
       xml:space="preserve"
       style="font-style:normal;font-weight:normal;font-size:25px;line-height:100%;font-family:sans-serif;text-align:center;letter-spacing:0px;word-spacing:0px;text-anchor:middle;fill:#000000;fill-opacity:1;stroke:#ffffff;stroke-width:0.5;stroke-linecap:butt;stroke-linejoin:miter;stroke-miterlimit:4;stroke-dasharray:none;stroke-opacity:1"
       x="543.76575"
       y="654.68707"
       id="text4188"
       sodipodi:linespacing="100%"><tspan
         sodipodi:role="line"
         id="tspan4190"
         x="543.76575"
         y="654.68707"
         style="font-style:normal;font-variant:normal;font-weight:normal;font-stretch:normal;font-family:serif;-inkscape-font-specification:serif">kestalis</tspan></text>
    <ellipse
       style="fill:#fd0000;fill-opacity:1;stroke:#000000;stroke-width:1;stroke-linecap:round;stroke-linejoin:round;stroke-miterlimit:4;stroke-dasharray:none;stroke-opacity:1"
       id="path4192"
       cx="543.28552"
       cy="671.38013"
       rx="4.7520618"
       ry="4.7520614" />
    <text
       xml:space="preserve"
       style="font-style:normal;font-weight:normal;font-size:25px;line-height:100%;font-family:sans-serif;text-align:center;letter-spacing:0px;word-spacing:0px;text-anchor:middle;fill:#000000;fill-opacity:1;stroke:#ffffff;stroke-width:0.5;stroke-linecap:butt;stroke-linejoin:miter;stroke-miterlimit:4;stroke-dasharray:none;stroke-opacity:1"
       x="907.42975"
       y="577.39655"
       id="text4188-3"
       sodipodi:linespacing="100%"><tspan
         sodipodi:role="line"
         id="tspan4190-6"
         x="907.42975"
         y="577.39655"
         style="font-style:normal;font-variant:normal;font-weight:normal;font-stretch:normal;font-family:serif;-inkscape-font-specification:serif">Littlefall</tspan></text>
    <ellipse
       style="fill:#fd0000;fill-opacity:1;stroke:#000000;stroke-width:1;stroke-linecap:round;stroke-linejoin:round;stroke-miterlimit:4;stroke-dasharray:none;stroke-opacity:1"
       id="path4192-7"
       cx="898.6828"
       cy="588.78705"
       rx="4.7520618"
       ry="4.7520614" />
  </g>
</svg>
